<?xml version="1.0" encoding="UTF-8" standalone="no"?>
<!-- Created with Inkscape (http://www.inkscape.org/) -->

<svg
   width="256"
   height="256"
   viewBox="0 0 67.733332 67.733333"
   version="1.1"
   id="svg1"
   sodipodi:docname="unbloat-mono.svg"
   inkscape:version="1.3 (0e150ed6c4, 2023-07-21)"
   xmlns:inkscape="http://www.inkscape.org/namespaces/inkscape"
   xmlns:sodipodi="http://sodipodi.sourceforge.net/DTD/sodipodi-0.dtd"
   xmlns:xlink="http://www.w3.org/1999/xlink"
   xmlns="http://www.w3.org/2000/svg"
   xmlns:svg="http://www.w3.org/2000/svg">
  <sodipodi:namedview
     id="namedview1"
     pagecolor="#ffffff"
     bordercolor="#000000"
     borderopacity="0.25"
     inkscape:showpageshadow="2"
     inkscape:pageopacity="0.0"
     inkscape:pagecheckerboard="true"
     inkscape:deskcolor="#d1d1d1"
     inkscape:document-units="px"
     showgrid="false"
     inkscape:zoom="1.4146745"
     inkscape:cx="145.96997"
     inkscape:cy="178.13285"
     inkscape:window-width="1920"
     inkscape:window-height="998"
     inkscape:window-x="0"
     inkscape:window-y="0"
     inkscape:window-maximized="1"
     inkscape:current-layer="layer1">
    <inkscape:grid
       id="grid1"
       units="px"
       originx="0"
       originy="0"
       spacingx="0.26458333"
       spacingy="0.26458333"
       empcolor="#0099e5"
       empopacity="0.30196078"
       color="#0099e5"
       opacity="0.14901961"
       empspacing="8"
       dotted="false"
       gridanglex="30"
       gridanglez="30"
       visible="false" />
  </sodipodi:namedview>
  <defs
     id="defs1">
    <linearGradient
       id="linearGradient13"
       inkscape:collect="always">
      <stop
         style="stop-color:#000000;stop-opacity:1;"
         offset="0"
         id="stop13" />
      <stop
         style="stop-color:#7b7b7b;stop-opacity:1;"
         offset="1"
         id="stop14" />
    </linearGradient>
    <linearGradient
       id="linearGradient11"
       inkscape:collect="always">
      <stop
         style="stop-color:#000000;stop-opacity:1;"
         offset="0"
         id="stop11" />
      <stop
         style="stop-color:#7a7a7a;stop-opacity:1;"
         offset="1"
         id="stop12" />
    </linearGradient>
    <linearGradient
       id="linearGradient9"
       inkscape:collect="always">
      <stop
         style="stop-color:#000000;stop-opacity:1;"
         offset="0"
         id="stop9" />
      <stop
         style="stop-color:#7a7a7a;stop-opacity:1;"
         offset="1"
         id="stop10" />
    </linearGradient>
    <linearGradient
       id="linearGradient7"
       inkscape:collect="always">
      <stop
         style="stop-color:#000000;stop-opacity:1;"
         offset="0"
         id="stop7" />
      <stop
         style="stop-color:#7a7a7a;stop-opacity:1;"
         offset="1"
         id="stop8" />
    </linearGradient>
    <linearGradient
       inkscape:collect="always"
       xlink:href="#linearGradient7"
       id="linearGradient8"
       x1="52.916664"
       y1="20.108332"
       x2="52.916664"
       y2="59.266663"
       gradientUnits="userSpaceOnUse" />
    <linearGradient
       inkscape:collect="always"
       xlink:href="#linearGradient9"
       id="linearGradient10"
       x1="47.624996"
       y1="52.916664"
       x2="8.4666662"
       y2="52.916664"
       gradientUnits="userSpaceOnUse" />
    <linearGradient
       inkscape:collect="always"
       xlink:href="#linearGradient11"
       id="linearGradient12"
       x1="14.816666"
       y1="47.624996"
       x2="14.816666"
       y2="8.4666662"
       gradientUnits="userSpaceOnUse" />
    <linearGradient
       inkscape:collect="always"
       xlink:href="#linearGradient13"
       id="linearGradient14"
       x1="20.108332"
       y1="14.816666"
       x2="59.266663"
       y2="14.816666"
       gradientUnits="userSpaceOnUse" />
  </defs>
  <g
     inkscape:label="Layer 1"
     inkscape:groupmode="layer"
     id="layer1">
    <rect
       style="fill:#000000;stroke:none;stroke-width:0.0370804;stroke-linecap:round;stroke-linejoin:round"
       id="rect1-37"
       width="50.762917"
       height="50.762917"
       x="69.868538"
       y="29.633331"
       rx="12.681458" />
    <rect
       style="fill:#f9f9f9;stroke:none;stroke-width:0.0200963;stroke-linecap:round;stroke-linejoin:round"
       id="rect1-3-9"
       width="27.516668"
       height="27.5072"
       x="69.849991"
       y="-1.7763568e-15"
       rx="4.5763464" />
    <path
       d="M 59.194836,20.108333 H 43.051118 c 0.157565,8.7e-5 0.313268,0.0083 0.466639,0.02377 0.154217,0.01557 0.306045,0.03835 0.455269,0.06873 0.149224,0.03038 0.295774,0.06821 0.43925,0.112655 0.143475,0.04444 0.284191,0.09573 0.421163,0.153479 0.136971,0.05774 0.270264,0.121945 0.399975,0.192236 0.129712,0.07029 0.255541,0.146327 0.377238,0.22841 0.121697,0.08208 0.23899,0.169913 0.351917,0.263033 0.112926,0.09312 0.221644,0.191672 0.325044,0.295072 0.103401,0.103401 0.201954,0.212119 0.295073,0.325045 0.09312,0.112926 0.18095,0.23022 0.263033,0.351916 0.08208,0.121697 0.158119,0.247527 0.22841,0.377238 0.07029,0.129712 0.134493,0.263005 0.192236,0.399976 0.05774,0.136971 0.109038,0.277687 0.153479,0.421163 0.04444,0.143475 0.08227,0.290025 0.112655,0.43925 0.03038,0.149224 0.05316,0.301051 0.06873,0.455269 0.01557,0.154218 0.02377,0.310766 0.02377,0.469222 v 18.354435 16.155603 c 0.07992,-0.0066 0.162359,-0.0039 0.241846,-0.01189 0.427348,-0.04314 0.84843,-0.107532 1.261939,-0.191719 0.413508,-0.08419 0.819404,-0.188468 1.21698,-0.311609 0.397575,-0.123142 0.786786,-0.265295 1.166337,-0.425297 0.37955,-0.160003 0.749544,-0.337496 1.108976,-0.532268 0.359432,-0.194771 0.708193,-0.406622 1.045414,-0.634069 0.337221,-0.227447 0.662735,-0.470608 0.975651,-0.728638 0.312917,-0.25803 0.613167,-0.531002 0.899687,-0.817521 0.286519,-0.28652 0.559491,-0.58677 0.817521,-0.899687 0.25803,-0.312916 0.501191,-0.63843 0.728638,-0.975651 0.227447,-0.337221 0.439298,-0.685982 0.634069,-1.045414 0.194772,-0.359432 0.372265,-0.729426 0.532268,-1.108976 0.160002,-0.379551 0.302155,-0.768762 0.425297,-1.166337 0.123141,-0.397576 0.227421,-0.803472 0.311609,-1.21698 0.08419,-0.413509 0.148579,-0.834591 0.191719,-1.261939 0.04314,-0.427348 0.06511,-0.861084 0.06511,-1.300179 v -25.4 c 0,-0.357422 -0.02451,-0.708565 -0.05323,-1.058333 z"
       style="fill:url(#linearGradient8);stroke-width:0.0393301;stroke-linecap:round;stroke-linejoin:round;stroke:none"
       id="path4" />
    <path
       d="M 8.5198893,47.624992 H 24.663607 c -0.157565,-8.7e-5 -0.313268,-0.0083 -0.466639,-0.02377 -0.154217,-0.01557 -0.306045,-0.03835 -0.455269,-0.06873 -0.149224,-0.03038 -0.295774,-0.06821 -0.43925,-0.112655 -0.143475,-0.04444 -0.284191,-0.09573 -0.421163,-0.153479 -0.136971,-0.05774 -0.270264,-0.121945 -0.399975,-0.192236 -0.129712,-0.07029 -0.255541,-0.146327 -0.377238,-0.22841 -0.121697,-0.08208 -0.23899,-0.169913 -0.351917,-0.263033 -0.112926,-0.09312 -0.221644,-0.191672 -0.325044,-0.295072 -0.103401,-0.103401 -0.201954,-0.212119 -0.295073,-0.325045 -0.09312,-0.112926 -0.18095,-0.23022 -0.263033,-0.351916 -0.08208,-0.121697 -0.158119,-0.247527 -0.22841,-0.377238 -0.07029,-0.129712 -0.134493,-0.263005 -0.192236,-0.399976 -0.05774,-0.136971 -0.109038,-0.277687 -0.153479,-0.421163 -0.04444,-0.143475 -0.08227,-0.290025 -0.112655,-0.43925 -0.03038,-0.149224 -0.05316,-0.301051 -0.06873,-0.455269 -0.01557,-0.154218 -0.02377,-0.310766 -0.02377,-0.469222 V 24.694094 8.5384908 c -0.07992,0.0066 -0.162359,0.0039 -0.241846,0.01189 -0.427348,0.04314 -0.848429,0.107532 -1.261938,0.191719 -0.413508,0.08419 -0.819404,0.188468 -1.21698,0.311609 -0.397575,0.123142 -0.786786,0.265295 -1.166337,0.425297 -0.37955,0.160003 -0.749544,0.337496 -1.108976,0.5322682 -0.359432,0.194771 -0.708193,0.406622 -1.045414,0.634069 -0.337221,0.227447 -0.662735,0.470608 -0.975651,0.728638 -0.312917,0.25803 -0.613167,0.531002 -0.899687,0.817521 -0.286519,0.28652 -0.559491,0.58677 -0.817521,0.899687 -0.25803,0.312916 -0.501191,0.63843 -0.728638,0.975651 -0.227447,0.337221 -0.439298,0.685982 -0.6340687,1.045414 -0.194772,0.359432 -0.372265,0.729426 -0.532268,1.108976 -0.160002,0.379551 -0.302155,0.768762 -0.425297,1.166337 -0.123141,0.397576 -0.227421,0.803472 -0.311609,1.21698 -0.08419,0.413509 -0.148579,0.834591 -0.191719,1.261939 -0.04314,0.427348 -0.06511,0.861084 -0.06511,1.300179 v 25.399999 c 0,0.357422 0.02451,0.708565 0.05323,1.058333 z"
       style="fill:url(#linearGradient12);stroke-width:0.0393301;stroke-linecap:round;stroke-linejoin:round"
       id="path4-5" />
    <path
       d="M 47.624993,59.213439 V 43.06972 c -8.7e-5,0.157565 -0.0083,0.313268 -0.02377,0.466639 -0.01557,0.154217 -0.03835,0.306045 -0.06873,0.455269 -0.03038,0.149224 -0.06821,0.295774 -0.112655,0.43925 -0.04444,0.143475 -0.09573,0.284191 -0.153479,0.421163 -0.05774,0.136971 -0.121945,0.270264 -0.192236,0.399975 -0.07029,0.129712 -0.146327,0.255541 -0.22841,0.377239 -0.08208,0.121697 -0.169913,0.23899 -0.263033,0.351917 -0.09312,0.112926 -0.191672,0.221644 -0.295072,0.325044 -0.103401,0.103401 -0.212119,0.201954 -0.325045,0.295073 -0.112926,0.09312 -0.23022,0.18095 -0.351916,0.263033 -0.121697,0.08208 -0.247527,0.158119 -0.377238,0.22841 -0.129712,0.07029 -0.263005,0.134493 -0.399976,0.192236 -0.136971,0.05774 -0.277687,0.109038 -0.421163,0.153479 -0.143475,0.04444 -0.290025,0.08227 -0.43925,0.112655 -0.149224,0.03038 -0.301051,0.05316 -0.455269,0.06873 -0.154218,0.01557 -0.310766,0.02377 -0.469222,0.02377 H 24.694094 8.5384912 c 0.0066,0.07992 0.0039,0.162359 0.01189,0.241846 0.04314,0.427348 0.107532,0.84843 0.191719,1.261939 0.08419,0.413508 0.188468,0.819404 0.311609,1.21698 0.123142,0.397575 0.265295,0.786786 0.425297,1.166337 0.160003,0.37955 0.337496,0.749544 0.5322678,1.108976 0.194771,0.359432 0.406622,0.708193 0.634069,1.045414 0.227447,0.337221 0.470608,0.662735 0.728638,0.975651 0.25803,0.312917 0.531002,0.613167 0.817521,0.899687 0.28652,0.286519 0.58677,0.559491 0.899687,0.817521 0.312916,0.25803 0.63843,0.501191 0.975651,0.728638 0.337221,0.227447 0.685982,0.439298 1.045414,0.634069 0.359432,0.194772 0.729426,0.372265 1.108976,0.532268 0.379551,0.160002 0.768762,0.302155 1.166337,0.425297 0.397576,0.123141 0.803472,0.227421 1.21698,0.311609 0.413509,0.08419 0.834591,0.148579 1.261939,0.191719 0.427348,0.04314 0.861084,0.06511 1.300179,0.06511 h 25.4 c 0.357422,0 0.708565,-0.02451 1.058333,-0.05323 z"
       style="fill:url(#linearGradient10);stroke-width:0.0393301;stroke-linecap:round;stroke-linejoin:round"
       id="path4-2" />
    <path
       d="M 20.089726,8.5384908 V 24.68221 c 8.7e-5,-0.157565 0.0083,-0.313268 0.02377,-0.466639 0.01557,-0.154217 0.03835,-0.306045 0.06873,-0.455269 0.03038,-0.149224 0.06821,-0.295774 0.112655,-0.43925 0.04444,-0.143475 0.09573,-0.284191 0.153479,-0.421163 0.05774,-0.136971 0.121945,-0.270264 0.192236,-0.399975 0.07029,-0.129712 0.146327,-0.255541 0.22841,-0.377239 0.08208,-0.121697 0.169913,-0.23899 0.263033,-0.351917 0.09312,-0.112926 0.191672,-0.221644 0.295072,-0.325044 0.103401,-0.103401 0.212119,-0.201954 0.325045,-0.295073 0.112926,-0.09312 0.23022,-0.18095 0.351916,-0.263033 0.121697,-0.08208 0.247527,-0.158119 0.377238,-0.22841 0.129712,-0.07029 0.263005,-0.134493 0.399976,-0.192236 0.136971,-0.05774 0.277687,-0.109038 0.421163,-0.153479 0.143475,-0.04444 0.290025,-0.08227 0.43925,-0.112655 0.149224,-0.03038 0.301051,-0.05316 0.455269,-0.06873 0.154218,-0.01557 0.310766,-0.02377 0.469222,-0.02377 h 18.354435 16.155603 c -0.0066,-0.07992 -0.0039,-0.162359 -0.01189,-0.241846 -0.04314,-0.427348 -0.107532,-0.84843 -0.191719,-1.261939 -0.08419,-0.413508 -0.188468,-0.819404 -0.311609,-1.21698 -0.123142,-0.397575 -0.265295,-0.786786 -0.425297,-1.166337 -0.160003,-0.37955 -0.337496,-0.749544 -0.532268,-1.108976 -0.194771,-0.359432 -0.406622,-0.708193 -0.634069,-1.045414 -0.227447,-0.337221 -0.470608,-0.662735 -0.728638,-0.975651 -0.25803,-0.312917 -0.531002,-0.613167 -0.817521,-0.899687 -0.28652,-0.286519 -0.58677,-0.559491 -0.899687,-0.817521 -0.312916,-0.25803 -0.63843,-0.501191 -0.975651,-0.728638 -0.337221,-0.227447 -0.685982,-0.439298 -1.045414,-0.634069 -0.359432,-0.1947722 -0.729426,-0.3722652 -1.108976,-0.5322682 -0.379551,-0.160002 -0.768762,-0.302155 -1.166337,-0.425297 -0.397576,-0.123141 -0.803472,-0.227421 -1.21698,-0.311609 -0.413509,-0.08419 -0.834591,-0.148579 -1.261939,-0.191719 -0.427348,-0.04314 -0.861084,-0.06511 -1.300179,-0.06511 h -25.4 c -0.357422,0 -0.708565,0.02451 -1.058333,0.05323 z"
       style="fill:url(#linearGradient14);stroke-width:0.0393301;stroke-linecap:round;stroke-linejoin:round"
       id="path4-2-6" />
    <path
       d="m 177.74678,41.275002 h -16.14372 c 0.15756,8.7e-5 0.31327,0.0083 0.46664,0.02377 0.15422,0.01557 0.30604,0.03835 0.45527,0.06873 0.14922,0.03038 0.29577,0.06821 0.43925,0.112655 0.14347,0.04444 0.28419,0.09573 0.42116,0.153479 0.13697,0.05774 0.27026,0.121945 0.39998,0.192236 0.12971,0.07029 0.25554,0.146327 0.37723,0.22841 0.1217,0.08208 0.23899,0.169913 0.35192,0.263033 0.11293,0.09312 0.22164,0.191672 0.32504,0.295072 0.10341,0.103401 0.20196,0.212119 0.29508,0.325045 0.0931,0.112926 0.18095,0.23022 0.26303,0.351916 0.0821,0.121697 0.15812,0.247527 0.22841,0.377238 0.0703,0.129712 0.13449,0.263005 0.19224,0.399976 0.0577,0.136971 0.10903,0.277687 0.15348,0.421163 0.0444,0.143475 0.0823,0.290025 0.11265,0.43925 0.0304,0.149224 0.0532,0.301051 0.0687,0.455269 0.0156,0.154218 0.0238,0.310766 0.0238,0.469222 v 18.354435 16.155603 c 0.0799,-0.0066 0.16236,-0.0039 0.24185,-0.01189 0.42734,-0.04314 0.84843,-0.107532 1.26194,-0.191719 0.4135,-0.08419 0.8194,-0.188468 1.21698,-0.311609 0.39757,-0.123142 0.78678,-0.265295 1.16633,-0.425297 0.37955,-0.160003 0.74955,-0.337496 1.10898,-0.532268 0.35943,-0.194771 0.70819,-0.406622 1.04541,-0.634069 0.33722,-0.227447 0.66274,-0.470608 0.97565,-0.728638 0.31292,-0.25803 0.61317,-0.531002 0.89969,-0.817521 0.28652,-0.28652 0.55949,-0.58677 0.81752,-0.899687 0.25803,-0.312916 0.50119,-0.63843 0.72864,-0.975651 0.22745,-0.337221 0.4393,-0.685982 0.63407,-1.045414 0.19477,-0.359432 0.37226,-0.729426 0.53227,-1.108976 0.16,-0.379551 0.30215,-0.768762 0.42529,-1.166337 0.12314,-0.397576 0.22742,-0.803472 0.31161,-1.21698 0.0842,-0.413509 0.14858,-0.834591 0.19172,-1.261939 0.0431,-0.427348 0.0651,-0.861084 0.0651,-1.300179 v -25.4 c 0,-0.357422 -0.0245,-0.708565 -0.0532,-1.058333 z"
       style="fill:#ff0000;stroke-width:0.0393301;stroke-linecap:round;stroke-linejoin:round"
       id="path4-3" />
    <path
       d="m 127.07183,68.791661 h 16.14372 c -0.15757,-8.7e-5 -0.31327,-0.0083 -0.46664,-0.02377 -0.15422,-0.01557 -0.30605,-0.03835 -0.45527,-0.06873 -0.14922,-0.03038 -0.29577,-0.06821 -0.43925,-0.112655 -0.14347,-0.04444 -0.28419,-0.09573 -0.42116,-0.153479 -0.13697,-0.05774 -0.27027,-0.121945 -0.39998,-0.192236 -0.12971,-0.07029 -0.25554,-0.146327 -0.37724,-0.22841 -0.12169,-0.08208 -0.23899,-0.169913 -0.35191,-0.263033 -0.11293,-0.09312 -0.22165,-0.191672 -0.32505,-0.295072 -0.1034,-0.103401 -0.20195,-0.212119 -0.29507,-0.325045 -0.0931,-0.112926 -0.18095,-0.23022 -0.26303,-0.351916 -0.0821,-0.121697 -0.15812,-0.247527 -0.22841,-0.377238 -0.0703,-0.129712 -0.1345,-0.263005 -0.19224,-0.399976 -0.0577,-0.136971 -0.10904,-0.277687 -0.15348,-0.421163 -0.0444,-0.143475 -0.0823,-0.290025 -0.11265,-0.43925 -0.0304,-0.149224 -0.0532,-0.301051 -0.0687,-0.455269 -0.0156,-0.154218 -0.0238,-0.310766 -0.0238,-0.469222 V 45.860763 29.70516 c -0.0799,0.0066 -0.16236,0.0039 -0.24185,0.01189 -0.42735,0.04314 -0.84843,0.107532 -1.26194,0.191719 -0.4135,0.08419 -0.8194,0.188468 -1.21698,0.311609 -0.39757,0.123142 -0.78678,0.265295 -1.16633,0.425297 -0.37955,0.160003 -0.74955,0.337496 -1.10898,0.532268 -0.35943,0.194771 -0.70819,0.406622 -1.04541,0.634069 -0.33722,0.227447 -0.66274,0.470608 -0.97565,0.728638 -0.31292,0.25803 -0.61317,0.531002 -0.89969,0.817521 -0.28652,0.28652 -0.55949,0.58677 -0.81752,0.899687 -0.25803,0.312916 -0.50119,0.63843 -0.72864,0.975651 -0.22745,0.337221 -0.4393,0.685982 -0.63407,1.045414 -0.19477,0.359432 -0.37226,0.729426 -0.53227,1.108976 -0.16,0.379551 -0.30215,0.768762 -0.42529,1.166337 -0.12315,0.397576 -0.22743,0.803472 -0.31161,1.21698 -0.0842,0.413509 -0.14858,0.834591 -0.19172,1.261939 -0.0431,0.427348 -0.0651,0.861084 -0.0651,1.300179 v 25.399999 c 0,0.357422 0.0245,0.708565 0.0532,1.058333 z"
       style="fill:#ff0000;stroke-width:0.0393301;stroke-linecap:round;stroke-linejoin:round"
       id="path4-5-7" />
    <path
       d="M 166.17693,80.380108 V 64.236389 c -8e-5,0.157565 -0.008,0.313268 -0.0238,0.466639 -0.0156,0.154217 -0.0384,0.306045 -0.0687,0.455269 -0.0304,0.149224 -0.0682,0.295774 -0.11265,0.43925 -0.0444,0.143475 -0.0957,0.284191 -0.15348,0.421163 -0.0577,0.136971 -0.12194,0.270264 -0.19224,0.399975 -0.0703,0.129712 -0.14632,0.255541 -0.22841,0.377239 -0.0821,0.121697 -0.16991,0.23899 -0.26303,0.351917 -0.0931,0.112926 -0.19167,0.221644 -0.29507,0.325044 -0.1034,0.103401 -0.21212,0.201954 -0.32505,0.295073 -0.11292,0.09312 -0.23022,0.18095 -0.35191,0.263033 -0.1217,0.08208 -0.24753,0.158119 -0.37724,0.22841 -0.12971,0.07029 -0.263,0.134493 -0.39998,0.192236 -0.13697,0.05774 -0.27768,0.109038 -0.42116,0.153479 -0.14347,0.04444 -0.29002,0.08227 -0.43925,0.112655 -0.14922,0.03038 -0.30105,0.05316 -0.45527,0.06873 -0.15422,0.01557 -0.31076,0.02377 -0.46922,0.02377 h -18.35443 -16.15561 c 0.007,0.07992 0.004,0.162359 0.0119,0.241846 0.0431,0.427348 0.10753,0.84843 0.19172,1.261939 0.0842,0.413508 0.18847,0.819404 0.31161,1.21698 0.12314,0.397575 0.2653,0.786786 0.4253,1.166337 0.16,0.37955 0.33749,0.749544 0.53227,1.108976 0.19477,0.359432 0.40662,0.708193 0.63406,1.045414 0.22745,0.337221 0.47061,0.662735 0.72864,0.975651 0.25803,0.312917 0.531,0.613167 0.81752,0.899687 0.28652,0.286519 0.58677,0.559491 0.89969,0.817521 0.31292,0.25803 0.63843,0.501191 0.97565,0.728638 0.33722,0.227447 0.68598,0.439298 1.04542,0.634069 0.35943,0.194772 0.72942,0.372265 1.10897,0.532268 0.37955,0.160002 0.76876,0.302155 1.16634,0.425297 0.39757,0.123141 0.80347,0.227421 1.21698,0.311609 0.41351,0.08419 0.83459,0.148579 1.26194,0.191719 0.42735,0.04314 0.86108,0.06511 1.30018,0.06511 h 25.4 c 0.35742,0 0.70856,-0.02451 1.05833,-0.05323 z"
       style="fill:#ff0000;stroke-width:0.0393301;stroke-linecap:round;stroke-linejoin:round"
       id="path4-2-4" />
    <path
       d="m 138.64167,29.70516 v 16.143719 c 8e-5,-0.157565 0.008,-0.313268 0.0238,-0.466639 0.0156,-0.154217 0.0384,-0.306045 0.0687,-0.455269 0.0304,-0.149224 0.0682,-0.295774 0.11265,-0.43925 0.0444,-0.143475 0.0957,-0.284191 0.15348,-0.421163 0.0577,-0.136971 0.12195,-0.270264 0.19224,-0.399975 0.0703,-0.129712 0.14632,-0.255541 0.22841,-0.377239 0.0821,-0.121697 0.16991,-0.23899 0.26303,-0.351917 0.0931,-0.112926 0.19167,-0.221644 0.29507,-0.325044 0.1034,-0.103401 0.21212,-0.201954 0.32505,-0.295073 0.11292,-0.09312 0.23022,-0.18095 0.35191,-0.263033 0.1217,-0.08208 0.24753,-0.158119 0.37724,-0.22841 0.12971,-0.07029 0.26301,-0.134493 0.39998,-0.192236 0.13697,-0.05774 0.27768,-0.109038 0.42116,-0.153479 0.14348,-0.04444 0.29003,-0.08227 0.43925,-0.112655 0.14922,-0.03038 0.30105,-0.05316 0.45527,-0.06873 0.15422,-0.01557 0.31077,-0.02377 0.46922,-0.02377 h 18.35444 16.1556 c -0.007,-0.07992 -0.004,-0.162359 -0.0119,-0.241846 -0.0431,-0.427348 -0.10753,-0.84843 -0.19172,-1.261939 -0.0842,-0.413508 -0.18847,-0.819404 -0.31161,-1.21698 -0.12314,-0.397575 -0.26529,-0.786786 -0.4253,-1.166337 -0.16,-0.37955 -0.33749,-0.749544 -0.53226,-1.108976 -0.19477,-0.359432 -0.40663,-0.708193 -0.63407,-1.045414 -0.22745,-0.337221 -0.47061,-0.662735 -0.72864,-0.975651 -0.25803,-0.312917 -0.531,-0.613167 -0.81752,-0.899687 -0.28652,-0.286519 -0.58677,-0.559491 -0.89969,-0.817521 -0.31291,-0.25803 -0.63843,-0.501191 -0.97565,-0.728638 -0.33722,-0.227447 -0.68598,-0.439298 -1.04541,-0.634069 -0.35944,-0.194772 -0.72943,-0.372265 -1.10898,-0.532268 -0.37955,-0.160002 -0.76876,-0.302155 -1.16634,-0.425297 -0.39757,-0.123141 -0.80347,-0.227421 -1.21698,-0.311609 -0.41351,-0.08419 -0.83459,-0.148579 -1.26194,-0.191719 -0.42734,-0.04314 -0.86108,-0.06511 -1.30017,-0.06511 h -25.4 c -0.35743,0 -0.70857,0.02451 -1.05834,0.05323 z"
       style="fill:#ff0000;stroke-width:0.0393301;stroke-linecap:round;stroke-linejoin:round"
       id="path4-2-6-5" />
    <path
       id="rect2-1"
       style="fill:#ff0000;stroke:none;stroke-width:0.0393301;stroke-linecap:round;stroke-linejoin:round"
       d="m 118.53333,-11.46545 v 22.9309 h 4.57388 v 16.227433 h 11.64167 V 11.46545 -11.46545 Z" />
    <rect
       style="fill:#ff0000;stroke:none;stroke-width:0.0393301;stroke-linecap:round;stroke-linejoin:round"
       id="rect2-6"
       width="16.215624"
       height="22.930902"
       x="101.34102"
       y="-11.475499"
       rx="0" />
    <rect
       style="fill:#ff0000;stroke:none;stroke-width:0.0280336;stroke-linecap:round;stroke-linejoin:round"
       id="rect2-8-1"
       width="11.641665"
       height="16.227428"
       x="105.91496"
       y="11.4554"
       rx="0" />
  </g>
</svg>
